<svg version="1.2" xmlns="http://www.w3.org/2000/svg" viewBox="0 0 4000 4000" width="500" height="500">
	<path fill-rule="evenodd" fill="#5ce1e6" d="m1647.8 2604.1c-90.1-90.1-145.9-214.6-145.9-352.2 0-168 127.4-375.1 228.9-540.3 22.8-37 44.3-72 64.1-106.3v-0.1l205.1-355.2 204.3 353.9 0.8 1.4c19.8 34.3 41.3 69.2 64 106.3 101.6 165.1 229 372.3 229 540.3 0 137.6-55.8 262.1-145.9 352.2-90.1 90.1-214.7 145.9-352.2 145.9-137.5 0-262.1-55.8-352.2-145.9z"/>
	<path fill-rule="evenodd" fill="#8c52ff" d="m407.9 2178.4c-11.1-127 26.2-258.2 114.6-363.5 108-128.8 338.7-205.6 522.7-266.8 41.3-13.8 80.2-26.7 117.4-40.3h0.1l385.4-140.3-71 402.4-0.3 1.6c-6.9 38.9-12.9 79.5-19.2 122.6-28.4 191.7-64 432.3-172 561-88.4 105.4-211.2 165-338.1 176.1-127 11.1-258.2-26.3-363.6-114.7-105.3-88.4-164.9-211.1-176-338.1z"/>
	<path fill-rule="evenodd" fill="#8c52ff" d="m3592.2 2179.4c11.1-127-26.2-258.2-114.6-363.5-108.1-128.8-338.7-205.6-522.7-266.8-41.3-13.8-80.2-26.7-117.4-40.3h-0.1l-385.4-140.3 71 402.4 0.3 1.6c6.9 38.9 12.9 79.5 19.2 122.6 28.4 191.7 64 432.3 172 561 88.4 105.4 211.2 165 338.1 176.1 127 11.1 258.2-26.3 363.6-114.7 105.3-88.4 164.9-211.1 176-338.1z"/>
</svg>